<svg width="148" height="33" viewBox="0 0 148 33" fill="none" xmlns="http://www.w3.org/2000/svg">
<g clip-path="url(#clip0_4445_171)">
<path d="M0 12.0304H13.57H21.81V3.86035L0 12.0304Z" fill="#3B142A"/>
<path d="M21.8101 3.86V32.71L32.1101 0L21.8101 3.86Z" fill="#3B142A"/>
<path d="M21.8101 32.7103V12.0303H13.5601L21.8101 32.7103Z" fill="#3B142A"/>
<path d="M15.68 17.3303L13.56 12.0303H0L15.68 17.3303Z" fill="#3B142A"/>
<path d="M143.46 19.3301H143.04C142.9 19.3301 142.76 19.3401 142.62 19.3601C142.12 19.4001 141.62 19.4601 141.13 19.5401C140.64 19.6201 140.2 19.7601 139.82 19.9601C139.44 20.1601 139.13 20.4201 138.89 20.7401C138.65 21.0601 138.53 21.4701 138.53 21.9701C138.53 22.5301 138.69 23.0101 139.01 23.4001C139.33 23.7901 139.87 23.9901 140.63 23.9901C141.01 23.9901 141.37 23.9401 141.71 23.8401C142.05 23.7401 142.35 23.6101 142.61 23.4501C142.87 23.2901 143.08 23.1101 143.23 22.9201C143.38 22.7301 143.45 22.5601 143.45 22.3901V19.3201L143.46 19.3301ZM147.31 22.8201C147.31 24.4001 147.54 25.5501 148 26.2801C147.64 26.4201 147.3 26.5201 146.99 26.5801C146.68 26.6401 146.35 26.6701 146.01 26.6701C145.29 26.6701 144.74 26.5301 144.37 26.2501C144 25.9701 143.76 25.5701 143.66 25.0501C143.22 25.5101 142.64 25.9001 141.92 26.2201C141.2 26.5401 140.32 26.7001 139.28 26.7001C138.74 26.7001 138.2 26.6301 137.66 26.4801C137.12 26.3301 136.63 26.0901 136.19 25.7501C135.75 25.4101 135.39 24.9601 135.11 24.3901C134.83 23.8201 134.69 23.1301 134.69 22.3101C134.69 21.2901 134.93 20.4601 135.43 19.8201C135.92 19.1801 136.54 18.6801 137.28 18.3101C138.02 17.9401 138.82 17.6901 139.68 17.5501C140.54 17.4101 141.33 17.3201 142.05 17.2801C142.29 17.2601 142.53 17.2501 142.76 17.2501H143.41V16.7001C143.41 15.9301 143.2 15.3801 142.79 15.0601C142.38 14.7401 141.71 14.5701 140.79 14.5701C139.93 14.5701 139.16 14.7101 138.49 14.9901C137.82 15.2701 137.16 15.5901 136.52 15.9501C136.24 15.6101 136.01 15.2301 135.84 14.8201C135.67 14.4101 135.58 14.1001 135.58 13.9001C135.58 13.6201 135.74 13.3501 136.05 13.0901C136.36 12.8301 136.79 12.5901 137.33 12.3801C137.87 12.1701 138.49 12.0001 139.19 11.8701C139.89 11.7401 140.63 11.6801 141.41 11.6801C142.49 11.6801 143.41 11.7901 144.16 12.0101C144.91 12.2301 145.52 12.5701 145.99 13.0301C146.46 13.4901 146.8 14.0701 147 14.7601C147.2 15.4501 147.3 16.2601 147.3 17.1801V22.8301L147.31 22.8201ZM127.8 13.4901C127.92 13.3101 128.08 13.1101 128.28 12.8901C128.48 12.6701 128.73 12.4701 129.02 12.2901C129.31 12.1101 129.63 11.9601 129.98 11.8401C130.33 11.7201 130.71 11.6601 131.11 11.6601C131.35 11.6601 131.61 11.6801 131.88 11.7201C132.15 11.7601 132.4 11.8301 132.63 11.9401C132.86 12.0501 133.04 12.2001 133.19 12.3901C133.33 12.5801 133.4 12.8101 133.4 13.0901C133.4 13.5301 133.29 14.0301 133.07 14.6001C132.85 15.1701 132.63 15.6501 132.41 16.0501C132.07 15.7701 131.73 15.5501 131.39 15.4001C131.05 15.2501 130.65 15.1701 130.19 15.1701C129.57 15.1701 129.05 15.3501 128.63 15.7101C128.21 16.0701 128 16.5001 128 17.0101V26.7401H123.91V12.0801C124.01 12.0601 124.13 12.0401 124.27 12.0201C124.39 12.0001 124.53 11.9901 124.69 11.9701C124.85 11.9601 125.04 11.9501 125.26 11.9501C125.9 11.9501 126.46 12.0701 126.93 12.3201C127.4 12.5701 127.7 12.9501 127.82 13.4701M116.18 13.4901C116.3 13.3101 116.46 13.1101 116.66 12.8901C116.86 12.6701 117.11 12.4701 117.4 12.2901C117.69 12.1101 118.01 11.9601 118.36 11.8401C118.71 11.7201 119.09 11.6601 119.49 11.6601C119.73 11.6601 119.99 11.6801 120.26 11.7201C120.53 11.7601 120.78 11.8301 121.01 11.9401C121.24 12.0501 121.43 12.2001 121.57 12.3901C121.71 12.5801 121.78 12.8101 121.78 13.0901C121.78 13.5301 121.67 14.0301 121.45 14.6001C121.23 15.1701 121.01 15.6501 120.79 16.0501C120.45 15.7701 120.11 15.5501 119.77 15.4001C119.43 15.2501 119.03 15.1701 118.57 15.1701C117.95 15.1701 117.43 15.3501 117.01 15.7101C116.59 16.0701 116.38 16.5001 116.38 17.0101V26.7401H112.29V12.0801C112.39 12.0601 112.51 12.0401 112.65 12.0201C112.77 12.0001 112.91 11.9901 113.07 11.9701C113.23 11.9601 113.42 11.9501 113.64 11.9501C114.28 11.9501 114.84 12.0701 115.31 12.3201C115.78 12.5701 116.08 12.9501 116.2 13.4701M105.37 17.6501C105.37 16.6901 105.18 15.9101 104.81 15.3101C104.44 14.7101 103.77 14.4101 102.8 14.4101C101.97 14.4101 101.31 14.7001 100.82 15.2701C100.33 15.8401 100.08 16.6401 100.08 17.6601H105.37V17.6501ZM104 23.7501C104.5 23.7501 104.94 23.6901 105.33 23.5801C105.71 23.4701 106.05 23.3401 106.36 23.1701C106.66 23.0101 106.92 22.8301 107.14 22.6501C107.36 22.4601 107.56 22.2801 107.74 22.1201C107.98 22.4201 108.23 22.8101 108.49 23.2801C108.75 23.7501 108.88 24.1401 108.88 24.4401C108.88 24.8801 108.63 25.2801 108.13 25.6401C107.71 25.9601 107.11 26.2401 106.34 26.4701C105.57 26.7001 104.66 26.8201 103.62 26.8201C102.68 26.8201 101.75 26.7001 100.84 26.4601C99.93 26.2201 99.12 25.8001 98.41 25.2001C97.7 24.6001 97.12 23.7901 96.68 22.7801C96.24 21.7701 96.02 20.4901 96.02 18.9501C96.02 17.6901 96.21 16.6001 96.61 15.6901C97 14.7801 97.52 14.0201 98.17 13.4201C98.82 12.8201 99.56 12.3801 100.38 12.1001C101.2 11.8201 102.04 11.6801 102.91 11.6801C104.03 11.6801 104.98 11.8601 105.76 12.2101C106.54 12.5601 107.18 13.0301 107.67 13.6201C108.16 14.2101 108.52 14.8901 108.74 15.6501C108.96 16.4101 109.07 17.2101 109.07 18.0601V18.4801C109.07 18.6401 109.07 18.8101 109.06 18.9901C109.06 19.1701 109.04 19.3501 109.03 19.5201C109.02 19.6901 109 19.8201 108.99 19.9201H100.12C100.2 21.0201 100.54 21.9401 101.15 22.6701C101.75 23.4001 102.71 23.7701 104.02 23.7701M85.68 24.1401C85.54 23.7401 85.45 23.3201 85.41 22.8801C85.37 22.4401 85.35 22.0001 85.35 21.5601V7.61008C85.49 7.59008 85.64 7.57008 85.8 7.55008C85.94 7.53008 86.09 7.52008 86.25 7.50008C86.41 7.49008 86.57 7.48008 86.73 7.48008C87.05 7.48008 87.37 7.51008 87.69 7.57008C88.01 7.63008 88.3 7.75008 88.56 7.93008C88.82 8.11008 89.03 8.36008 89.19 8.67008C89.35 8.98008 89.43 9.39008 89.43 9.89008V12.0201H93.64V15.0601H89.43V21.4701C89.43 22.8701 90 23.5701 91.14 23.5701C91.42 23.5701 91.69 23.5201 91.94 23.4401C92.19 23.3501 92.41 23.2501 92.62 23.1401C92.82 23.0301 93 22.9201 93.15 22.7901C93.3 22.6701 93.41 22.5801 93.47 22.5201C93.77 22.9601 94 23.3401 94.16 23.6701C94.32 23.9901 94.4 24.3001 94.4 24.5801C94.4 24.8401 94.3 25.1001 94.09 25.3501C93.88 25.6001 93.58 25.8401 93.2 26.0501C92.82 26.2601 92.36 26.4401 91.82 26.5701C91.28 26.7001 90.69 26.7701 90.05 26.7701C88.81 26.7701 87.84 26.5301 87.15 26.0501C86.46 25.5701 85.97 24.9401 85.69 24.1601M78.26 18.9701C78.26 18.3701 78.21 17.8101 78.11 17.2901C78.01 16.7701 77.85 16.3201 77.62 15.9401C77.39 15.5601 77.08 15.2601 76.69 15.0501C76.3 14.8401 75.83 14.7301 75.27 14.7301C74.43 14.7301 73.85 14.8901 73.52 15.2101C73.19 15.5301 73.03 15.8801 73.03 16.2601V22.6301C73.19 22.7901 73.47 22.9801 73.88 23.2001C74.29 23.4201 74.76 23.5301 75.3 23.5301C76.32 23.5301 77.06 23.1301 77.54 22.3301C78.02 21.5301 78.26 20.4101 78.26 18.9601M72.85 13.4101C73.17 13.0301 73.67 12.6401 74.35 12.2501C75.03 11.8601 75.89 11.6601 76.93 11.6601C77.67 11.6601 78.37 11.7801 79.04 12.0401C79.71 12.2901 80.3 12.7001 80.82 13.2601C81.34 13.8201 81.75 14.5601 82.06 15.4801C82.37 16.4001 82.52 17.5301 82.52 18.8801C82.52 20.4401 82.34 21.7301 81.98 22.7401C81.62 23.7501 81.16 24.5501 80.59 25.1401C80.02 25.7301 79.39 26.1501 78.69 26.3901C77.99 26.6301 77.29 26.7501 76.59 26.7501C76.01 26.7501 75.51 26.6801 75.08 26.5501C74.65 26.4201 74.29 26.2701 73.99 26.1101C73.69 25.9501 73.46 25.7901 73.3 25.6301C73.14 25.4701 73.04 25.3601 73 25.3001V32.6901H68.91V12.0901C69.01 12.0701 69.13 12.0501 69.27 12.0301C69.39 12.0101 69.53 12.0001 69.69 11.9801C69.85 11.9701 70.04 11.9601 70.26 11.9601C70.93 11.9601 71.49 12.0701 71.96 12.2901C72.42 12.5101 72.72 12.8801 72.84 13.4001M61.52 19.3301H61.1C60.96 19.3301 60.82 19.3401 60.68 19.3601C60.18 19.4001 59.68 19.4601 59.19 19.5401C58.7 19.6201 58.26 19.7601 57.88 19.9601C57.5 20.1601 57.19 20.4201 56.95 20.7401C56.71 21.0601 56.59 21.4701 56.59 21.9701C56.59 22.5301 56.75 23.0101 57.07 23.4001C57.39 23.7901 57.93 23.9901 58.69 23.9901C59.07 23.9901 59.43 23.9401 59.77 23.8401C60.11 23.7401 60.41 23.6101 60.67 23.4501C60.93 23.2901 61.14 23.1101 61.29 22.9201C61.44 22.7301 61.52 22.5601 61.52 22.3901V19.3201V19.3301ZM65.36 22.8201C65.36 24.4001 65.59 25.5501 66.05 26.2801C65.69 26.4201 65.35 26.5201 65.04 26.5801C64.73 26.6401 64.4 26.6701 64.06 26.6701C63.34 26.6701 62.79 26.5301 62.42 26.2501C62.05 25.9701 61.81 25.5701 61.71 25.0501C61.27 25.5101 60.69 25.9001 59.97 26.2201C59.25 26.5401 58.37 26.7001 57.32 26.7001C56.78 26.7001 56.24 26.6301 55.7 26.4801C55.16 26.3301 54.67 26.0901 54.23 25.7501C53.79 25.4101 53.43 24.9601 53.15 24.3901C52.87 23.8201 52.73 23.1301 52.73 22.3101C52.73 21.2901 52.97 20.4601 53.47 19.8201C53.96 19.1801 54.58 18.6801 55.32 18.3101C56.06 17.9401 56.86 17.6901 57.72 17.5501C58.58 17.4101 59.37 17.3201 60.09 17.2801C60.33 17.2601 60.57 17.2501 60.8 17.2501H61.45V16.7001C61.45 15.9301 61.25 15.3801 60.83 15.0601C60.42 14.7401 59.75 14.5701 58.83 14.5701C57.97 14.5701 57.2 14.7101 56.53 14.9901C55.86 15.2701 55.2 15.5901 54.56 15.9501C54.28 15.6101 54.05 15.2301 53.88 14.8201C53.71 14.4101 53.63 14.1001 53.63 13.9001C53.63 13.6201 53.78 13.3501 54.1 13.0901C54.41 12.8301 54.84 12.5901 55.38 12.3801C55.92 12.1701 56.54 12.0001 57.24 11.8701C57.94 11.7401 58.68 11.6801 59.46 11.6801C60.54 11.6801 61.46 11.7901 62.21 12.0101C62.96 12.2301 63.57 12.5701 64.04 13.0301C64.51 13.4901 64.85 14.0701 65.05 14.7601C65.25 15.4501 65.35 16.2601 65.35 17.1801V22.8301L65.36 22.8201ZM49.97 25.1101C49.85 25.2301 49.65 25.3801 49.37 25.5601C49.09 25.7401 48.73 25.9201 48.28 26.1001C47.83 26.2801 47.28 26.4301 46.64 26.5601C45.99 26.6901 45.25 26.7501 44.41 26.7501C42.8 26.7501 41.4 26.4901 40.23 25.9701C39.05 25.4501 38.08 24.7301 37.32 23.8101C36.55 22.8801 35.99 21.7901 35.63 20.5201C35.27 19.2601 35.09 17.8701 35.09 16.3501C35.09 14.8301 35.28 13.4401 35.67 12.1501C36.06 10.8701 36.64 9.76008 37.42 8.82008C38.2 7.88008 39.17 7.15008 40.33 6.62008C41.5 6.09008 42.86 5.83008 44.44 5.83008C45.22 5.83008 45.92 5.90008 46.55 6.04008C47.18 6.18008 47.72 6.34008 48.19 6.53008C48.66 6.72008 49.05 6.92008 49.35 7.13008C49.66 7.34008 49.89 7.51008 50.05 7.65008C50.23 7.81008 50.38 8.00008 50.51 8.22008C50.64 8.44008 50.7 8.68008 50.7 8.94008C50.7 9.34008 50.55 9.74008 50.25 10.1301C49.95 10.5301 49.62 10.9001 49.26 11.2401C49.02 11.0001 48.75 10.7601 48.45 10.5101C48.15 10.2601 47.82 10.0401 47.45 9.85008C47.08 9.66008 46.66 9.50008 46.2 9.37008C45.73 9.24008 45.21 9.18008 44.63 9.18008C43.61 9.18008 42.76 9.38008 42.08 9.79008C41.39 10.2001 40.84 10.7301 40.42 11.3901C40 12.0501 39.7 12.8001 39.52 13.6401C39.34 14.4901 39.25 15.3501 39.25 16.2301C39.25 17.1701 39.34 18.0601 39.52 18.9201C39.7 19.7801 40.01 20.5301 40.45 21.1901C40.89 21.8501 41.46 22.3701 42.17 22.7701C42.88 23.1701 43.76 23.3701 44.81 23.3701C45.37 23.3701 45.88 23.3001 46.35 23.1601C46.82 23.0201 47.23 22.8501 47.59 22.6501C47.95 22.4501 48.26 22.2401 48.53 22.0201C48.8 21.8001 49.02 21.6101 49.2 21.4501C49.32 21.5901 49.46 21.7601 49.62 21.9601C49.78 22.1601 49.93 22.3701 50.07 22.5901C50.21 22.8101 50.33 23.0301 50.43 23.2501C50.53 23.4701 50.58 23.6701 50.58 23.8501C50.58 24.1101 50.53 24.3301 50.43 24.5101C50.33 24.6901 50.17 24.8901 49.95 25.1101" fill="#3B142A"/>
</g>
<defs>
<clipPath id="clip0_4445_171">
<rect width="148" height="32.71" fill="white"/>
</clipPath>
</defs>
</svg>
