<svg width="42" height="42" viewBox="0 0 42 42" fill="none" xmlns="http://www.w3.org/2000/svg">
<path d="M15 4.5C15 2.01562 17.0156 0 19.5 0H22.5C24.9844 0 27 2.01562 27 4.5V37.5C27 39.9844 24.9844 42 22.5 42H19.5C17.0156 42 15 39.9844 15 37.5V4.5ZM0 22.5C0 20.0156 2.01562 18 4.5 18H7.5C9.98438 18 12 20.0156 12 22.5V37.5C12 39.9844 9.98438 42 7.5 42H4.5C2.01562 42 0 39.9844 0 37.5V22.5ZM34.5 6H37.5C39.9844 6 42 8.01562 42 10.5V37.5C42 39.9844 39.9844 42 37.5 42H34.5C32.0156 42 30 39.9844 30 37.5V10.5C30 8.01562 32.0156 6 34.5 6Z" fill="#F3EFDA"/>
</svg>
