<svg width="45" height="47" viewBox="0 0 45 47" fill="none" xmlns="http://www.w3.org/2000/svg">
<g clip-path="url(#clip0_4072_690)">
<path d="M31.7101 32.9602C33.4101 35.9102 35.0901 38.8302 36.7801 41.7502C29.3301 47.4502 17.7501 48.1402 9.17006 41.5802C-0.699935 34.0102 -2.31994 21.1102 2.96007 11.8302C9.04006 1.14024 20.4101 -1.21976 27.7301 0.510244C27.5301 0.940244 23.1501 10.0402 23.1501 10.0402C23.1501 10.0402 22.8001 10.0602 22.6101 10.0702C20.4501 10.1602 18.8301 10.6702 17.1101 11.5602C13.2601 13.5702 10.6601 17.3602 10.1601 21.6702C9.90006 23.8202 10.2001 26.0102 11.0201 28.0102C11.7201 29.7102 12.7001 31.2102 14.0201 32.4902C16.0401 34.4402 18.4501 35.6502 21.2501 36.0502C23.8901 36.4302 26.4401 36.0502 28.8201 34.8602C29.7101 34.4102 30.4801 33.9202 31.3601 33.2402C31.4701 33.1702 31.5701 33.0702 31.7101 32.9702" fill="#3B142A"/>
<path d="M31.7301 7.06059C31.3001 6.64059 30.9001 6.24059 30.5001 5.85059C30.2601 5.61059 30.0301 5.37059 29.7901 5.14059C29.7001 5.06059 29.6001 4.94059 29.6001 4.94059C29.6001 4.94059 29.6801 4.76059 29.7201 4.69059C30.1901 3.75059 30.9201 3.07059 31.7801 2.53059C32.7401 1.92059 33.8601 1.62059 34.9901 1.64059C36.4401 1.67059 37.7901 2.03059 38.9301 3.00059C39.7701 3.72059 40.2001 4.63059 40.2801 5.72059C40.4101 7.55059 39.6501 8.96059 38.1401 9.94059C37.2501 10.5206 36.3001 10.9606 35.3401 11.4906C34.8101 11.7806 34.3601 12.0406 33.8401 12.5706C33.3901 13.1006 33.3601 13.6006 33.3601 13.6006H40.2201V16.6506H29.6301V16.3506C29.5901 14.8506 29.7701 13.4406 30.4501 12.0706C31.0801 10.8206 32.0601 9.90059 33.2501 9.20059C34.1601 8.66059 35.1201 8.19059 36.0301 7.65059C36.5901 7.32059 36.9901 6.83059 36.9901 6.12059C36.9901 5.51059 36.5501 4.97059 35.9101 4.80059C34.4201 4.40059 32.9001 5.04059 32.1101 6.40059C31.9901 6.60059 31.8801 6.80059 31.7301 7.05059" fill="#3B142A"/>
<path d="M27.77 19.7305L21.95 29.8205H33.4799L39.1699 39.7505L45 29.7105L39.22 19.7305H27.77Z" fill="#3B142A"/>
</g>
<defs>
<clipPath id="clip0_4072_690">
<rect width="45" height="46.26" fill="white"/>
</clipPath>
</defs>
</svg>
