<svg width="644" height="150" viewBox="0 0 644 150" fill="none" xmlns="http://www.w3.org/2000/svg">
<g clip-path="url(#clip0_1062_2283)">
<path d="M23.0455 40.0807C22.9546 39.7572 23.1921 39.4337 23.5308 39.4337H29.358C29.6612 39.4337 29.8988 39.1658 29.8584 38.8676L29.0042 31.9936C28.9739 31.7408 28.7566 31.5488 28.5039 31.5488H1.31827C0.94933 31.5488 0.706737 31.9278 0.858357 32.2615L21.782 78.5701C21.8629 78.7521 22.0449 78.8683 22.242 78.8683H33.9217C34.0886 78.8683 34.2099 78.7066 34.1644 78.5448L23.0455 40.0807Z" fill="#3B142A"/>
<path d="M58.0202 24.1798C58.0051 23.8917 58.2325 23.644 58.5256 23.644H66.6171C66.8798 23.644 67.0972 23.4418 67.1225 23.184L67.7087 16.3303C67.7341 16.0372 67.5016 15.7793 67.2033 15.7793H33.4526C33.1543 15.7793 32.9218 16.0372 32.9472 16.3353L39.0626 78.4087C39.0878 78.6665 39.3051 78.8637 39.568 78.8637L60.5168 78.8434C60.805 78.8434 61.0375 78.6008 61.0223 78.3077L58.0252 24.1748L58.0202 24.1798Z" fill="#3B142A"/>
<path d="M75.4998 0H115.821C116.154 0 116.397 0.318429 116.306 0.641913L94.5536 78.4952C94.493 78.7125 94.2958 78.8643 94.0683 78.8643H66.711C66.4077 78.8643 66.1752 78.6014 66.2106 78.3031L74.9995 0.449844C75.0298 0.192069 75.2421 0 75.4998 0Z" fill="#3B142A"/>
<path d="M335.677 79.8346C313.52 79.8346 303.148 67.042 303.148 47.9412C303.148 26.2881 316.597 14.668 336.363 14.668C341.878 14.668 346.315 15.042 352.34 16.159C352.572 16.1995 352.743 16.3966 352.755 16.6291L353.71 34.8705C353.72 35.0473 353.547 35.1788 353.381 35.1232C349.777 33.9607 345.253 32.8437 338.052 32.8437C330.85 32.8437 322.516 37.2258 322.516 47.2336C322.516 57.9388 329.101 61.4972 336.076 61.4972C338.532 61.4972 339.811 61.199 339.811 61.199C339.937 61.1838 340.028 61.0777 340.028 60.9462V55.3712C340.028 55.2297 339.922 55.1185 339.781 55.1185H331.193C330.916 55.1185 330.688 54.8911 330.688 54.6131V39.8491C330.688 39.5711 330.916 39.3436 331.193 39.3436H353.816C354.083 39.3436 354.301 39.5508 354.321 39.8187L356.716 77.4591C356.732 77.722 356.55 77.9545 356.287 77.9898C350.055 78.9147 343.358 79.8347 335.677 79.8296V79.8346Z" fill="#3B142A"/>
<path d="M234.078 14.3945C218.977 14.3945 209.516 22.4008 207.277 36.4065L200.591 78.3027C200.54 78.611 200.777 78.889 201.091 78.889H219.66C219.907 78.889 220.12 78.707 220.16 78.4644L222.591 63.2153C222.611 63.0939 222.717 63.0029 222.838 63.0029H229.717C229.873 63.0029 229.99 63.1444 229.965 63.2962L227.568 78.3078C227.518 78.616 227.756 78.894 228.07 78.894H246.607C246.855 78.894 247.067 78.7122 247.107 78.4695L253.82 36.4117C256.053 22.4008 249.175 14.3995 234.073 14.3995L234.078 14.3945ZM226.77 37.0535C227.205 34.314 228.731 32.8078 231.061 32.8078C232.137 32.8078 232.961 33.1363 233.512 33.7833C234.165 34.5515 234.377 35.704 234.133 37.2153L232.572 47.0209C232.552 47.1422 232.446 47.2332 232.325 47.2332H225.446C225.29 47.2332 225.173 47.0917 225.198 46.94L226.776 37.0535H226.77Z" fill="#3B142A"/>
<path d="M184.961 15.966L181.726 43.0122C181.711 43.1386 181.605 43.2346 181.474 43.2346H180.897C180.786 43.2346 180.685 43.1588 180.655 43.0527L173.014 15.87C172.952 15.6526 172.755 15.501 172.529 15.501L163.33 15.4707C163.127 15.4707 162.946 15.592 162.865 15.774L151.059 43.1437C151.019 43.2346 150.927 43.2953 150.826 43.2953H150.427C150.285 43.2953 150.174 43.1841 150.174 43.0426V15.9761C150.174 15.6981 149.946 15.4707 149.669 15.4707H131.485C131.206 15.4707 130.979 15.6981 130.979 15.9761V78.3427C130.979 78.6207 131.206 78.8481 131.485 78.8481H150.052C150.25 78.8481 150.432 78.7318 150.512 78.55L164.654 47.2933C164.695 47.2023 164.785 47.1467 164.886 47.1467H165.932C166.044 47.1467 166.145 47.2226 166.175 47.3287L175.389 78.4892C175.455 78.7016 175.646 78.8532 175.874 78.8532L194.549 78.8936C194.796 78.8936 195.009 78.7117 195.049 78.4691L204.97 16.1126C205.02 15.8043 204.782 15.5263 204.47 15.5263H185.456C185.199 15.5263 184.986 15.7183 184.956 15.9711L184.961 15.966Z" fill="#3B142A"/>
<path d="M287.007 16.047L278.33 47.0308C278.299 47.1419 278.197 47.2178 278.086 47.2178H277.274C277.131 47.2178 277.02 47.1065 277.02 46.965L276.995 16.0571C276.995 15.7791 276.767 15.5518 276.49 15.5518H256.895C256.602 15.5518 256.37 15.7994 256.39 16.0875L258.74 52.2165C258.821 53.4398 259.039 54.6528 259.477 55.795C261.282 60.5008 265.831 63.7406 271.036 63.7406H273.482C273.569 63.7406 273.629 63.8215 273.604 63.9024L269.586 78.2418C269.495 78.5653 269.737 78.8836 270.071 78.8836H289.135C289.362 78.8836 289.56 78.732 289.62 78.5148L307.041 16.32C307.132 15.9965 306.89 15.6781 306.556 15.6781H287.492C287.265 15.6781 287.067 15.8298 287.007 16.047Z" fill="#3B142A"/>
<path d="M398.737 50.0129C398.712 49.9574 398.732 49.8916 398.783 49.8562C402.517 47.5312 405.145 42.5677 405.13 34.506C405.13 34.3745 405.13 34.2381 405.13 34.1066C405.13 34.0865 405.13 34.0662 405.13 34.046C405.13 34.0309 405.13 34.0156 405.13 34.0005C405.115 33.1362 405.059 32.2871 404.953 31.4581C403.427 19.1001 395.872 15.5215 383.383 15.5215H358.345C358.052 15.5215 357.819 15.7692 357.839 16.0624L362.059 78.4642C362.08 78.7271 362.298 78.9344 362.565 78.9344H381.295C381.589 78.9344 381.82 78.6867 381.8 78.3935L380.123 55.3454C380.113 55.1987 380.229 55.0724 380.375 55.0724H382.175C382.285 55.0724 382.382 55.1431 382.418 55.2494L389.847 78.5805C389.913 78.7877 390.109 78.9344 390.327 78.9344H411.079C411.448 78.9344 411.69 78.5552 411.539 78.2216L398.737 50.0129ZM384.54 38.8932C383.707 39.7827 382.463 40.2376 380.85 40.2376H378.889C378.758 40.2376 378.647 40.1366 378.637 40.0001L377.939 29.6486C377.929 29.5021 378.045 29.3807 378.192 29.3807H380.183C383.544 29.3807 385.389 30.6342 385.683 34.7789C385.809 36.5681 385.419 37.9531 384.54 38.8932Z" fill="#3B142A"/>
<path d="M439.912 14.3535C419.914 14.3535 406.885 27.131 406.885 46.7524C406.885 66.3736 419.919 79.1563 439.912 79.1563C459.906 79.1563 473.127 66.2876 473.127 46.7524C473.127 27.217 460.007 14.3535 439.912 14.3535ZM440.004 58.2714C433.489 58.2714 429.056 53.591 429.056 46.7473C429.056 39.9036 433.489 35.1373 440.004 35.1373C446.517 35.1373 451.046 39.8176 451.046 46.7473C451.046 53.6769 446.517 58.2714 440.004 58.2714Z" fill="#3B142A"/>
<path d="M612.72 15.668H591.443C591.165 15.668 590.938 15.8953 590.938 16.1733V78.4337C590.938 78.7117 591.165 78.9392 591.443 78.9392H612.72C632.147 78.9392 643.716 67.2483 643.716 47.2985C643.716 27.3537 632.147 15.668 612.72 15.668ZM612.624 61.643H611.34C611.199 61.643 611.087 61.5318 611.087 61.3902V33.2168C611.087 33.0753 611.199 32.9642 611.34 32.9642H612.624C618.77 32.9642 622.03 38.4078 622.03 47.2985C622.03 56.1943 618.775 61.638 612.624 61.638V61.643Z" fill="#3B142A"/>
<path d="M508.9 15.5568C508.653 15.5568 508.44 15.7388 508.399 15.9814L501.718 57.6299C501.213 60.809 499.256 61.4763 497.705 61.4763C496.649 61.4763 495.85 61.1679 495.335 60.5665C494.749 59.879 494.561 58.8379 494.784 57.4731L501.369 16.138C501.42 15.8298 501.183 15.5518 500.869 15.5518H482.25C482.003 15.5518 481.79 15.7336 481.75 15.9763L475.043 58.0898C472.829 71.949 479.758 79.8693 494.698 79.8693C509.638 79.8693 519.003 71.949 521.216 58.0898L527.949 16.138C527.999 15.8298 527.761 15.5518 527.448 15.5518H508.905L508.9 15.5568Z" fill="#3B142A"/>
<path d="M566.515 15.582C566.236 15.582 566.009 15.8094 566.009 16.0874L565.949 43.1943C565.949 43.3358 565.837 43.447 565.696 43.447H565.675C565.575 43.447 565.484 43.3864 565.442 43.2954L553.076 15.8802C552.995 15.6983 552.812 15.582 552.616 15.582H533.875C533.627 15.582 533.416 15.7639 533.375 16.0065L523.475 78.3529C523.424 78.6612 523.661 78.9392 523.975 78.9392L542.497 78.9292C542.75 78.9292 542.962 78.7472 542.999 78.4944L548.057 43.6644C548.072 43.538 548.179 43.442 548.31 43.442H548.537C548.634 43.442 548.724 43.4975 548.765 43.5835L565.847 78.6562C565.933 78.828 566.11 78.9392 566.302 78.9392H585.114C585.391 78.9392 585.619 78.7118 585.619 78.4338V16.0874C585.619 15.8094 585.391 15.582 585.114 15.582H566.52H566.515Z" fill="#3B142A"/>
<path d="M325.012 147.75V117.218C325.012 114.883 325.401 113.029 326.18 111.657C326.959 110.285 328.071 109.284 329.517 108.654C331 108.024 332.724 107.709 334.689 107.709H338.137V114.104H335.801C334.615 114.104 333.762 114.345 333.243 114.827C332.761 115.272 332.52 116.069 332.52 117.218V147.75H325.012ZM321.175 126.005V119.721H338.582V126.005H321.175ZM354.852 148.417C352.183 148.417 349.773 147.806 347.622 146.582C345.509 145.322 343.822 143.598 342.561 141.41C341.338 139.186 340.726 136.646 340.726 133.791C340.726 130.862 341.338 128.304 342.561 126.117C343.822 123.892 345.528 122.168 347.678 120.944C349.828 119.684 352.238 119.054 354.908 119.054C357.614 119.054 360.024 119.684 362.137 120.944C364.288 122.168 365.975 123.892 367.198 126.117C368.459 128.304 369.089 130.844 369.089 133.736C369.089 136.627 368.459 139.186 367.198 141.41C365.975 143.598 364.288 145.322 362.137 146.582C359.987 147.806 357.558 148.417 354.852 148.417ZM354.852 141.911C356.113 141.911 357.225 141.614 358.189 141.021C359.19 140.428 359.968 139.519 360.525 138.296C361.118 137.072 361.414 135.552 361.414 133.736C361.414 131.919 361.118 130.417 360.525 129.231C359.968 128.007 359.19 127.099 358.189 126.506C357.225 125.876 356.131 125.56 354.908 125.56C353.721 125.56 352.627 125.876 351.626 126.506C350.625 127.099 349.828 128.007 349.235 129.231C348.679 130.417 348.401 131.919 348.401 133.736C348.401 135.552 348.679 137.072 349.235 138.296C349.828 139.519 350.607 140.428 351.571 141.021C352.572 141.614 353.666 141.911 354.852 141.911ZM373.891 147.75V119.721H380.565L381.288 124.893C381.955 123.67 382.789 122.631 383.79 121.779C384.828 120.926 385.996 120.259 387.294 119.777C388.629 119.295 390.093 119.054 391.687 119.054V127.006H389.129C388.017 127.006 386.979 127.136 386.015 127.396C385.088 127.655 384.272 128.082 383.568 128.675C382.863 129.231 382.326 130.009 381.955 131.01C381.584 132.011 381.399 133.272 381.399 134.792V147.75H373.891ZM406.566 147.75V108.821H422.527C425.233 108.821 427.513 109.247 429.367 110.1C431.221 110.953 432.611 112.139 433.538 113.659C434.502 115.142 434.984 116.866 434.984 118.831C434.984 120.796 434.558 122.446 433.705 123.781C432.852 125.115 431.721 126.154 430.312 126.895C428.941 127.6 427.421 128.007 425.752 128.119L426.642 127.507C428.422 127.581 429.997 128.063 431.369 128.953C432.778 129.806 433.872 130.955 434.65 132.401C435.466 133.847 435.874 135.422 435.874 137.128C435.874 139.204 435.373 141.039 434.372 142.634C433.371 144.228 431.925 145.488 430.034 146.415C428.144 147.305 425.826 147.75 423.083 147.75H406.566ZM414.073 141.633H421.859C423.898 141.633 425.474 141.169 426.586 140.242C427.699 139.315 428.255 137.981 428.255 136.238C428.255 134.496 427.68 133.142 426.531 132.178C425.381 131.177 423.787 130.677 421.748 130.677H414.073V141.633ZM414.073 125.06H421.303C423.268 125.06 424.751 124.615 425.752 123.725C426.79 122.835 427.309 121.575 427.309 119.943C427.309 118.349 426.79 117.107 425.752 116.217C424.751 115.29 423.25 114.827 421.247 114.827H414.073V125.06ZM450.65 148.417C448.388 148.417 446.442 147.954 444.81 147.027C443.216 146.063 441.993 144.673 441.14 142.856C440.287 141.002 439.861 138.722 439.861 136.016V119.721H447.369V135.237C447.369 137.499 447.832 139.204 448.759 140.353C449.723 141.503 451.187 142.077 453.152 142.077C454.413 142.077 455.525 141.799 456.489 141.243C457.453 140.65 458.213 139.816 458.769 138.741C459.363 137.628 459.659 136.275 459.659 134.681V119.721H467.111V147.75H460.549L459.937 143.19C459.122 144.784 457.917 146.063 456.322 147.027C454.728 147.954 452.837 148.417 450.65 148.417ZM484.252 148.417C481.694 148.417 479.469 148.01 477.578 147.194C475.687 146.378 474.204 145.247 473.129 143.801C472.054 142.356 471.442 140.724 471.294 138.908H478.746C478.932 139.612 479.247 140.261 479.692 140.854C480.137 141.41 480.73 141.855 481.471 142.189C482.213 142.522 483.103 142.689 484.141 142.689C485.142 142.689 485.957 142.559 486.588 142.3C487.218 142.003 487.681 141.614 487.978 141.132C488.312 140.65 488.478 140.15 488.478 139.63C488.478 138.852 488.256 138.259 487.811 137.851C487.366 137.406 486.717 137.054 485.865 136.794C485.012 136.535 483.974 136.275 482.75 136.016C481.416 135.756 480.099 135.441 478.802 135.07C477.541 134.662 476.41 134.162 475.409 133.569C474.408 132.975 473.611 132.215 473.018 131.289C472.425 130.362 472.128 129.212 472.128 127.841C472.128 126.172 472.573 124.689 473.463 123.391C474.353 122.057 475.65 121 477.356 120.222C479.061 119.443 481.119 119.054 483.529 119.054C486.903 119.054 489.572 119.814 491.537 121.334C493.502 122.854 494.67 124.949 495.041 127.618H487.978C487.756 126.765 487.255 126.098 486.476 125.616C485.735 125.097 484.734 124.837 483.473 124.837C482.139 124.837 481.119 125.078 480.415 125.56C479.71 126.042 479.358 126.673 479.358 127.451C479.358 127.97 479.58 128.434 480.025 128.842C480.507 129.249 481.175 129.602 482.027 129.898C482.88 130.158 483.918 130.417 485.142 130.677C487.292 131.122 489.183 131.641 490.814 132.234C492.446 132.79 493.725 133.606 494.652 134.681C495.578 135.719 496.042 137.239 496.042 139.241C496.042 141.021 495.56 142.615 494.596 144.024C493.632 145.396 492.26 146.471 490.481 147.249C488.738 148.028 486.662 148.417 484.252 148.417ZM500.893 147.75V119.721H508.401V147.75H500.893ZM504.674 115.884C503.34 115.884 502.228 115.494 501.338 114.716C500.485 113.9 500.059 112.881 500.059 111.657C500.059 110.434 500.485 109.433 501.338 108.654C502.228 107.838 503.34 107.431 504.674 107.431C506.046 107.431 507.159 107.838 508.011 108.654C508.901 109.433 509.346 110.434 509.346 111.657C509.346 112.881 508.901 113.9 508.011 114.716C507.159 115.494 506.046 115.884 504.674 115.884ZM514.319 147.75V119.721H520.937L521.493 124.281C522.345 122.724 523.55 121.464 525.108 120.5C526.702 119.536 528.593 119.054 530.78 119.054C533.116 119.054 535.081 119.536 536.675 120.5C538.269 121.464 539.474 122.872 540.29 124.726C541.143 126.58 541.569 128.86 541.569 131.567V147.75H534.117V132.29C534.117 130.065 533.635 128.36 532.671 127.173C531.744 125.987 530.298 125.394 528.333 125.394C527.073 125.394 525.942 125.69 524.941 126.283C523.977 126.877 523.217 127.729 522.661 128.842C522.104 129.917 521.826 131.233 521.826 132.79V147.75H514.319ZM560.432 148.417C557.615 148.417 555.112 147.824 552.925 146.638C550.774 145.414 549.087 143.727 547.864 141.577C546.677 139.389 546.084 136.868 546.084 134.014C546.084 131.085 546.677 128.508 547.864 126.283C549.087 124.022 550.774 122.261 552.925 121C555.075 119.702 557.577 119.054 560.432 119.054C563.213 119.054 565.641 119.665 567.718 120.889C569.794 122.112 571.407 123.762 572.556 125.838C573.705 127.915 574.28 130.269 574.28 132.901C574.28 133.272 574.28 133.698 574.28 134.18C574.28 134.625 574.243 135.089 574.169 135.571H551.423V131.01H566.717C566.605 129.194 565.957 127.766 564.77 126.728C563.621 125.69 562.175 125.171 560.432 125.171C559.172 125.171 558.004 125.468 556.929 126.061C555.853 126.617 555.001 127.488 554.37 128.675C553.777 129.861 553.481 131.363 553.481 133.179V134.792C553.481 136.312 553.759 137.647 554.315 138.796C554.908 139.909 555.724 140.78 556.762 141.41C557.8 142.003 559.005 142.3 560.377 142.3C561.748 142.3 562.879 142.003 563.769 141.41C564.696 140.817 565.382 140.057 565.827 139.13H573.501C572.982 140.873 572.111 142.448 570.888 143.857C569.664 145.266 568.162 146.378 566.383 147.194C564.603 148.01 562.62 148.417 560.432 148.417ZM590.217 148.417C587.658 148.417 585.434 148.01 583.543 147.194C581.652 146.378 580.169 145.247 579.094 143.801C578.019 142.356 577.407 140.724 577.259 138.908H584.711C584.896 139.612 585.211 140.261 585.656 140.854C586.101 141.41 586.694 141.855 587.436 142.189C588.177 142.522 589.067 142.689 590.105 142.689C591.106 142.689 591.922 142.559 592.552 142.3C593.183 142.003 593.646 141.614 593.943 141.132C594.276 140.65 594.443 140.15 594.443 139.63C594.443 138.852 594.221 138.259 593.776 137.851C593.331 137.406 592.682 137.054 591.829 136.794C590.977 136.535 589.938 136.275 588.715 136.016C587.38 135.756 586.064 135.441 584.766 135.07C583.506 134.662 582.375 134.162 581.374 133.569C580.373 132.975 579.576 132.215 578.983 131.289C578.39 130.362 578.093 129.212 578.093 127.841C578.093 126.172 578.538 124.689 579.428 123.391C580.317 122.057 581.615 121 583.321 120.222C585.026 119.443 587.084 119.054 589.494 119.054C592.867 119.054 595.537 119.814 597.502 121.334C599.467 122.854 600.635 124.949 601.005 127.618H593.943C593.72 126.765 593.22 126.098 592.441 125.616C591.7 125.097 590.699 124.837 589.438 124.837C588.103 124.837 587.084 125.078 586.379 125.56C585.675 126.042 585.323 126.673 585.323 127.451C585.323 127.97 585.545 128.434 585.99 128.842C586.472 129.249 587.139 129.602 587.992 129.898C588.845 130.158 589.883 130.417 591.106 130.677C593.257 131.122 595.148 131.641 596.779 132.234C598.41 132.79 599.689 133.606 600.616 134.681C601.543 135.719 602.007 137.239 602.007 139.241C602.007 141.021 601.525 142.615 600.561 144.024C599.597 145.396 598.225 146.471 596.445 147.249C594.703 148.028 592.626 148.417 590.217 148.417ZM618.147 148.417C615.589 148.417 613.364 148.01 611.473 147.194C609.583 146.378 608.1 145.247 607.024 143.801C605.949 142.356 605.337 140.724 605.189 138.908H612.641C612.827 139.612 613.142 140.261 613.587 140.854C614.032 141.41 614.625 141.855 615.366 142.189C616.108 142.522 616.998 142.689 618.036 142.689C619.037 142.689 619.852 142.559 620.483 142.3C621.113 142.003 621.576 141.614 621.873 141.132C622.207 140.65 622.374 140.15 622.374 139.63C622.374 138.852 622.151 138.259 621.706 137.851C621.261 137.406 620.612 137.054 619.76 136.794C618.907 136.535 617.869 136.275 616.645 136.016C615.311 135.756 613.994 135.441 612.697 135.07C611.436 134.662 610.305 134.162 609.304 133.569C608.303 132.975 607.506 132.215 606.913 131.289C606.32 130.362 606.023 129.212 606.023 127.841C606.023 126.172 606.468 124.689 607.358 123.391C608.248 122.057 609.545 121 611.251 120.222C612.956 119.443 615.014 119.054 617.424 119.054C620.798 119.054 623.467 119.814 625.432 121.334C627.397 122.854 628.565 124.949 628.936 127.618H621.873C621.651 126.765 621.15 126.098 620.371 125.616C619.63 125.097 618.629 124.837 617.368 124.837C616.034 124.837 615.014 125.078 614.31 125.56C613.605 126.042 613.253 126.673 613.253 127.451C613.253 127.97 613.475 128.434 613.92 128.842C614.402 129.249 615.07 129.602 615.922 129.898C616.775 130.158 617.813 130.417 619.037 130.677C621.187 131.122 623.078 131.641 624.709 132.234C626.341 132.79 627.62 133.606 628.547 134.681C629.473 135.719 629.937 137.239 629.937 139.241C629.937 141.021 629.455 142.615 628.491 144.024C627.527 145.396 626.155 146.471 624.376 147.249C622.633 148.028 620.557 148.417 618.147 148.417Z" fill="#3B142A"/>
</g>
<defs>
<clipPath id="clip0_1062_2283">
<rect width="642.875" height="150" fill="white" transform="translate(0.8125)"/>
</clipPath>
</defs>
</svg>
