<svg width="60" height="48" viewBox="0 0 60 48" fill="none" xmlns="http://www.w3.org/2000/svg">
<path d="M21 0C24.1826 0 27.2348 1.26428 29.4853 3.51472C31.7357 5.76516 33 8.8174 33 12C33 15.1826 31.7357 18.2348 29.4853 20.4853C27.2348 22.7357 24.1826 24 21 24C17.8174 24 14.7652 22.7357 12.5147 20.4853C10.2643 18.2348 9 15.1826 9 12C9 8.8174 10.2643 5.76516 12.5147 3.51472C14.7652 1.26428 17.8174 0 21 0ZM16.7156 28.5H25.2844C27.2156 28.5 29.0719 28.8281 30.7969 29.4281C30.2812 31.0312 30 32.7281 30 34.5C30 40.0781 32.7656 45.0094 37.0125 48H2.78438C1.24688 48 0 46.7531 0 45.2156C0 35.9812 7.48125 28.5 16.7156 28.5ZM33 34.5C33 30.9196 34.4223 27.4858 36.9541 24.9541C39.4858 22.4223 42.9196 21 46.5 21C50.0804 21 53.5142 22.4223 56.0459 24.9541C58.5777 27.4858 60 30.9196 60 34.5C60 38.0804 58.5777 41.5142 56.0459 44.0459C53.5142 46.5777 50.0804 48 46.5 48C42.9196 48 39.4858 46.5777 36.9541 44.0459C34.4223 41.5142 33 38.0804 33 34.5ZM46.5 27C45.675 27 45 27.675 45 28.5V34.5C45 35.325 45.675 36 46.5 36H51C51.825 36 52.5 35.325 52.5 34.5C52.5 33.675 51.825 33 51 33H48V28.5C48 27.675 47.325 27 46.5 27Z" fill="#3B142A"/>
</svg>
